<svg width="19" height="19" viewBox="0 0 19 19" fill="none" xmlns="http://www.w3.org/2000/svg">
<path d="M10.4771 0C11.5459 0.00285 12.0883 0.00855 12.5567 0.02185L12.741 0.0285C12.9538 0.0361 13.1637 0.0455999 13.4174 0.0569999C14.4282 0.1045 15.1179 0.2641 15.723 0.49875C16.35 0.74005 16.8782 1.06685 17.4064 1.5941C17.8897 2.06885 18.2635 2.64335 18.5018 3.2775C18.7364 3.88265 18.896 4.57235 18.9435 5.5841C18.9549 5.8368 18.9644 6.04675 18.972 6.2605L18.9777 6.4448C18.992 6.9122 18.9977 7.45465 18.9996 8.5234L19.0005 9.2321V10.4766C19.0029 11.1695 18.9956 11.8625 18.9787 12.5552L18.973 12.7395C18.9654 12.9532 18.9559 13.1632 18.9445 13.4159C18.897 14.4276 18.7355 15.1164 18.5018 15.7225C18.2635 16.3566 17.8897 16.9312 17.4064 17.4059C16.9317 17.8892 16.3572 18.263 15.723 18.5012C15.1179 18.7359 14.4282 18.8955 13.4174 18.943L12.741 18.9715L12.5567 18.9772C12.0883 18.9905 11.5459 18.9972 10.4771 18.9991L9.76844 19H8.52489C7.83164 19.0024 7.13839 18.9952 6.44534 18.9781L6.26104 18.9725C6.03552 18.9639 5.81005 18.9541 5.58464 18.943C4.57384 18.8955 3.88414 18.7359 3.27804 18.5012C2.64423 18.2629 2.07006 17.889 1.59559 17.4059C1.11199 16.9312 0.737844 16.3567 0.49929 15.7225C0.26464 15.1173 0.10504 14.4276 0.0575403 13.4159L0.0290403 12.7395L0.0242904 12.5552C0.00677819 11.8625 -0.00113933 11.1695 0.000540357 10.4766V8.5234C-0.00208914 7.83047 0.00487826 7.13754 0.0214404 6.4448L0.0280904 6.2605C0.0356904 6.04675 0.0451904 5.8368 0.0565904 5.5841C0.10409 4.57235 0.26369 3.8836 0.49834 3.2775C0.73745 2.64309 1.11225 2.06856 1.59654 1.5941C2.07074 1.11107 2.64457 0.73727 3.27804 0.49875C3.88414 0.2641 4.57289 0.1045 5.58464 0.0569999C5.83734 0.0455999 6.04824 0.0361 6.26104 0.0285L6.44534 0.0227999C7.13807 0.00592107 7.83101 -0.00136296 8.52394 0.000949931L10.4771 0ZM9.50054 4.75C8.24076 4.75 7.03258 5.25044 6.14178 6.14124C5.25099 7.03204 4.75054 8.24022 4.75054 9.5C4.75054 10.7598 5.25099 11.968 6.14178 12.8588C7.03258 13.7496 8.24076 14.25 9.50054 14.25C10.7603 14.25 11.9685 13.7496 12.8593 12.8588C13.7501 11.968 14.2505 10.7598 14.2505 9.5C14.2505 8.24022 13.7501 7.03204 12.8593 6.14124C11.9685 5.25044 10.7603 4.75 9.50054 4.75ZM9.50054 6.65C9.87481 6.64994 10.2454 6.72359 10.5912 6.86676C10.937 7.00993 11.2512 7.21981 11.5159 7.48441C11.7806 7.74901 11.9906 8.06316 12.1339 8.40891C12.2772 8.75467 12.351 9.12526 12.351 9.49953C12.3511 9.87379 12.2774 10.2444 12.1343 10.5902C11.9911 10.936 11.7812 11.2502 11.5166 11.5149C11.252 11.7796 10.9379 11.9896 10.5921 12.1329C10.2463 12.2762 9.87576 12.3499 9.50149 12.35C8.74562 12.35 8.02071 12.0497 7.48624 11.5153C6.95176 10.9808 6.65149 10.2559 6.65149 9.5C6.65149 8.74413 6.95176 8.01922 7.48624 7.48475C8.02071 6.95027 8.74562 6.65 9.50149 6.65M14.489 3.325C14.174 3.325 13.872 3.45011 13.6493 3.67281C13.4266 3.89551 13.3015 4.19756 13.3015 4.5125C13.3015 4.82744 13.4266 5.12949 13.6493 5.35219C13.872 5.57489 14.174 5.7 14.489 5.7C14.8039 5.7 15.106 5.57489 15.3287 5.35219C15.5514 5.12949 15.6765 4.82744 15.6765 4.5125C15.6765 4.19756 15.5514 3.89551 15.3287 3.67281C15.106 3.45011 14.8039 3.325 14.489 3.325Z" fill="#2B2C2C"/>
</svg>
