<svg width="21" height="21" viewBox="0 0 21 21" fill="none" xmlns="http://www.w3.org/2000/svg">
<path d="M0.857178 10.3571C0.857178 5.87912 0.857178 3.63912 2.24818 2.24812C3.63918 0.857117 5.87818 0.857117 10.3572 0.857117C14.8352 0.857117 17.0752 0.857117 18.4662 2.24812C19.8572 3.63912 19.8572 5.87812 19.8572 10.3571C19.8572 14.8351 19.8572 17.0751 18.4662 18.4661C17.0752 19.8571 14.8362 19.8571 10.3572 19.8571C5.87918 19.8571 3.63918 19.8571 2.24818 18.4661C0.857178 17.0751 0.857178 14.8361 0.857178 10.3571Z" stroke="#2B2C2C" stroke-width="1.71429" stroke-linejoin="round"/>
<path d="M14.8572 10.3571C14.8572 11.5506 14.3831 12.6952 13.5392 13.5391C12.6952 14.383 11.5507 14.8571 10.3572 14.8571C9.1637 14.8571 8.01911 14.383 7.1752 13.5391C6.33128 12.6952 5.85718 11.5506 5.85718 10.3571C5.85718 9.16364 6.33128 8.01905 7.1752 7.17514C8.01911 6.33122 9.1637 5.85712 10.3572 5.85712C11.5507 5.85712 12.6952 6.33122 13.5392 7.17514C14.3831 8.01905 14.8572 9.16364 14.8572 10.3571Z" stroke="#2B2C2C" stroke-width="1.71429"/>
<path d="M15.8651 4.85718H15.8551" stroke="#2B2C2C" stroke-width="1.71429" stroke-linecap="round" stroke-linejoin="round"/>
</svg>
