<svg width="27" height="27" viewBox="0 0 27 27" fill="none" xmlns="http://www.w3.org/2000/svg">
<path d="M15.7901 19.2101C16.0483 19.3287 16.3391 19.3558 16.6147 19.2869C16.8903 19.2181 17.1343 19.0574 17.3064 18.8314L17.7501 18.2501C17.983 17.9396 18.2849 17.6876 18.6321 17.514C18.9792 17.3405 19.362 17.2501 19.7501 17.2501H23.5001C24.1632 17.2501 24.7991 17.5135 25.2679 17.9823C25.7368 18.4512 26.0002 19.0871 26.0002 19.7501V23.5001C26.0002 24.1632 25.7368 24.7991 25.2679 25.2679C24.7991 25.7368 24.1632 26.0002 23.5001 26.0002C17.5327 26.0002 11.8097 23.6296 7.59014 19.41C3.37054 15.1904 1 9.46743 1 3.50002C1 2.83697 1.26339 2.20108 1.73224 1.73224C2.20108 1.26339 2.83697 1 3.50002 1H7.25004C7.91309 1 8.54897 1.26339 9.01782 1.73224C9.48666 2.20108 9.75006 2.83697 9.75006 3.50002V7.25004C9.75006 7.63816 9.65969 8.02094 9.48612 8.36808C9.31255 8.71522 9.06054 9.01718 8.75005 9.25005L8.16505 9.68881C7.93557 9.86403 7.77382 10.1133 7.70728 10.3942C7.64075 10.6752 7.67352 10.9705 7.80004 11.2301C9.50841 14.6999 12.3181 17.5061 15.7901 19.2101Z" stroke="#2B2C2C" stroke-width="2" stroke-linecap="round" stroke-linejoin="round"/>
</svg>
