<svg width="52" height="52" viewBox="0 0 52 52" fill="none" xmlns="http://www.w3.org/2000/svg">
<path d="M38.5667 13.4727C38.5667 20.9135 32.9404 26.9455 26 26.9455C19.0596 26.9455 13.4333 20.9135 13.4333 13.4727C13.4333 6.03195 19.0596 0 26 0C32.9404 0 38.5667 6.03195 38.5667 13.4727Z" fill="#F7EEE3"/>
<path d="M38.5667 38.5273C38.5667 45.9681 32.9404 52 26 52C19.0596 52 13.4333 45.9681 13.4333 38.5273C13.4333 31.0865 19.0596 25.0545 26 25.0545C32.9404 25.0545 38.5667 31.0865 38.5667 38.5273Z" fill="#F7EEE3"/>
<path d="M23.4 26.2364C23.4 33.155 18.1617 38.7636 11.7 38.7636C5.23827 38.7636 0 33.155 0 26.2364C0 19.3177 5.23827 13.7091 11.7 13.7091C18.1617 13.7091 23.4 19.3177 23.4 26.2364Z" fill="#F7EEE3"/>
<path d="M52 26.2364C52 33.155 46.7617 38.7636 40.3 38.7636C33.8383 38.7636 28.6 33.155 28.6 26.2364C28.6 19.3177 33.8383 13.7091 40.3 13.7091C46.7617 13.7091 52 19.3177 52 26.2364Z" fill="#F7EEE3"/>
</svg>
